# xmcd CD database file
#
# Track frame offsets:
#	150
#	23985
#	45119
#	73917
#	90888
#	114613
#	139413
#	164292
#	188534
#	209797
#
# Disc length: 3095 seconds
#
# Revision: 0
# Processed by: cddbd v1.5.1PL2 Copyright (c) Steve Scherf et al.
# Submitted via: CDex 1.51
#
DISCID=870c150a
DTITLE=Metzger Fonda Stevens Sorgen - ... at any other time
DYEAR=2001
DGENRE=Jazz
TTITLE0=Lover Man
TTITLE1=At Any Time
TTITLE2=I Wish You Love
TTITLE3=I've been waiting
TTITLE4=Angel Eyes
TTITLE5=Everyman's Song
TTITLE6=My One And Only Love
TTITLE7=Reborn
TTITLE8=The Wish
TTITLE9=Save In My Arms
EXTD=YEAR: 2001
EXTT0=
EXTT1=
EXTT2=
EXTT3=
EXTT4=
EXTT5=
EXTT6=
EXTT7=
EXTT8=
EXTT9=
PLAYORDER=
